<svg width="512" height="512" viewBox="0 0 300 300" xmlns="http://www.w3.org/2000/svg" clip-rule="evenodd" fill-rule="evenodd" version="1.1">
  <g class="layer">
    <g>
      <path d="m216.5,267.5c-0.06,-0.54 -0.39,-0.88 -1,-1c-5.1,3.06 -10.44,5.23 -16,6.5c0.33,-1 0.67,-2 1,-3c-1.33,-0.67 -2.67,-0.67 -4,0c0.67,0.33 1.33,0.67 2,1c-1.11,0.64 -2.28,1.14 -3.5,1.5c-1.16,-2.1 -3.16,-4.1 -6,-6c-1.51,0.76 -2.85,1.76 -4,3c-4.88,-8.96 -7.04,-9.3 -6.5,-1c-3.02,-0.5 -5.35,-2 -7,-4.5c2.78,-1.78 2.44,-2.78 -1,-3c0.21,-1.68 -0.63,-3.18 -2.5,-4.5c-0.56,0.52 -1.23,0.86 -2,1c-1.49,-0.82 -2.99,-1.65 -4.5,-2.5c1.63,-0.85 1.96,-1.85 1,-3c1.24,-0.46 2.08,0.04 2.5,1.5c1.17,-1.17 2.33,-2.33 3.5,-3.5c-2.22,-0.65 -3.39,-2.15 -3.5,-4.5c-1.05,1.02 -2.22,1.18 -3.5,0.5c5.24,-1.81 4.91,-2.81 -1,-3c2,-0.33 4,-0.67 6,-1c-0.95,-0.48 -1.95,-0.65 -3,-0.5c44.4,-9.57 69.57,-36.9 75.5,-82c0.67,-6 0.67,-12 0,-18c-3.52,-4.9 -7.52,-5.23 -12,-1c-2.56,7.61 -4.4,15.28 -5.5,23c0.06,-0.44 -0.1,-0.77 -0.5,-1c-1.09,2.43 -1.59,2.1 -1.5,-1c-2.44,-0.18 -4.6,0.48 -6.5,2c-1.91,-1.18 -1.75,-2.18 0.5,-3c-0.53,-0.69 -1.19,-1.19 -2,-1.5c3.99,-0.43 4.66,-1.93 2,-4.5c-0.75,0.88 -1.25,1.88 -1.5,3c-0.33,-0.33 -0.67,-0.67 -1,-1c-0.22,1.88 -0.88,3.55 -2,5c0,-1.33 0,-2.67 0,-4c-0.33,0.33 -0.67,0.67 -1,1c-1.82,-0.6 -3.66,-1.27 -5.5,-2c1.53,-1.69 2.86,-3.53 4,-5.5c-0.23,-0.4 -0.56,-0.56 -1,-0.5c4.73,-8.69 7.56,-18.03 8.5,-28c0.5,-14.66 0.67,-29.33 0.5,-44c-22.89,-2.13 -44.39,-8.8 -64.5,-20c-9.78,5.54 -19.94,10.2 -30.5,14c-1.38,-1.3 -2.88,-1.3 -4.5,0c-0.22,-1.88 -0.88,-3.55 -2,-5c-1.3,1.34 -1.8,2.67 -1.5,4c-0.88,-3.35 -2.55,-3.85 -5,-1.5c1.12,0.25 2.12,0.75 3,1.5c-0.33,0.33 -0.67,0.67 -1,1c-1,-1.33 -2,-1.33 -3,0c-1.23,-1.15 -1.23,-2.32 0,-3.5c-1.24,-0.46 -2.08,0.04 -2.5,1.5c-0.39,-3.67 -1.56,-3.83 -3.5,-0.5c-1,0.67 -2,0.67 -3,0c0.86,-0.69 1.52,-1.52 2,-2.5c-0.35,-1.2 -0.85,-1.2 -1.5,0c-0.33,-1.33 -0.67,-2.67 -1,-4c-1.71,2.54 -3.21,5.21 -4.5,8c0.83,0.95 0.99,1.95 0.5,3c-1.19,-1.06 -1.69,-2.4 -1.5,-4c-2.09,-0.06 -3.59,-1.06 -4.5,-3c-1.07,0.69 -2.23,1.19 -3.5,1.5c2.22,1.94 2.22,3.61 0,5c2.67,0.67 2.67,1.33 0,2c0.33,0.33 0.67,0.67 1,1c-1.29,0.49 -2.63,0.66 -4,0.5c-0.08,-1.43 0.25,-2.76 1,-4c-0.31,-0.81 -0.81,-1.47 -1.5,-2c-0.89,1.21 -1.73,1.21 -2.5,0c-0.19,-1.76 -0.19,-3.6 0,-5.5c-1.46,-2.02 -3.46,-2.85 -6,-2.5c-0.48,-3.19 0.19,-6.02 2,-8.5c-0.95,-0.62 -1.78,-0.45 -2.5,0.5c-0.49,1.29 -0.66,2.63 -0.5,4c-1.64,0.02 -2.98,-0.65 -4,-2c-1.31,0.81 -2.48,1.81 -3.5,3c-1.11,-1.9 -1.28,-3.73 -0.5,-5.5c-3.39,-2.16 -4.06,-4.66 -2,-7.5c20.17,-19.03 44.17,-30.53 72,-34.5c53.4,-5.55 96.57,12.62 129.5,54.5c31.44,48.52 33.77,98.52 7,150c-12.76,21.26 -29.93,37.93 -51.5,50z" fill="#62a446"/>
    </g>
    <g>
      <path d="m59.5,47.5c-2.06,2.84 -1.39,5.34 2,7.5c-0.78,1.77 -0.61,3.6 0.5,5.5c1.02,-1.19 2.19,-2.19 3.5,-3c1.02,1.35 2.36,2.02 4,2c-0.16,-1.37 0.01,-2.71 0.5,-4c0.72,-0.95 1.55,-1.12 2.5,-0.5c-1.81,2.48 -2.48,5.31 -2,8.5c2.54,-0.35 4.54,0.48 6,2.5c-0.19,1.9 -0.19,3.74 0,5.5c0.77,1.21 1.61,1.21 2.5,0c0.69,0.53 1.19,1.19 1.5,2c-0.75,1.24 -1.08,2.57 -1,4c1.37,0.16 2.71,-0.01 4,-0.5c-0.33,-0.33 -0.67,-0.67 -1,-1c2.67,-0.67 2.67,-1.33 0,-2c2.22,-1.39 2.22,-3.06 0,-5c1.27,-0.31 2.43,-0.81 3.5,-1.5c0.91,1.94 2.41,2.94 4.5,3c-0.19,1.6 0.31,2.94 1.5,4c0.49,-1.05 0.33,-2.05 -0.5,-3c1.29,-2.79 2.79,-5.46 4.5,-8c0.33,1.33 0.67,2.67 1,4c0.65,-1.2 1.15,-1.2 1.5,0c-0.48,0.98 -1.14,1.81 -2,2.5c1,0.67 2,0.67 3,0c1.94,-3.33 3.11,-3.17 3.5,0.5c0.42,-1.46 1.26,-1.96 2.5,-1.5c-1.23,1.18 -1.23,2.35 0,3.5c1,-1.33 2,-1.33 3,0c0.33,-0.33 0.67,-0.67 1,-1c-0.88,-0.75 -1.88,-1.25 -3,-1.5c2.45,-2.35 4.12,-1.85 5,1.5c-0.3,-1.33 0.2,-2.66 1.5,-4c1.12,1.45 1.78,3.12 2,5c1.62,-1.3 3.12,-1.3 4.5,0c-10.68,3.71 -21.68,6.05 -33,7c-1.02,14.99 -1.19,29.99 -0.5,45c2.88,17.25 11.04,31.42 24.5,42.5c12.85,7.59 25.19,15.92 37,25c1.87,1.3 3.87,1.63 6,1c10.98,-8.49 22.32,-16.49 34,-24c6.9,-5.4 12.9,-11.57 18,-18.5c0.44,-0.06 0.77,0.1 1,0.5c-1.14,1.97 -2.47,3.81 -4,5.5c1.84,0.73 3.68,1.4 5.5,2c0.33,-0.33 0.67,-0.67 1,-1c0,1.33 0,2.67 0,4c1.12,-1.45 1.78,-3.12 2,-5c0.33,0.33 0.67,0.67 1,1c0.25,-1.12 0.75,-2.12 1.5,-3c2.66,2.57 1.99,4.07 -2,4.5c0.81,0.31 1.47,0.81 2,1.5c-2.25,0.82 -2.41,1.82 -0.5,3c1.9,-1.52 4.06,-2.18 6.5,-2c-0.09,3.1 0.41,3.43 1.5,1c0.4,0.23 0.56,0.56 0.5,1c-0.74,14.65 -7.07,26.15 -19,34.5c-3.42,1.9 -7.09,2.74 -11,2.5c0.11,-2.28 0.94,-4.28 2.5,-6c7.18,-5.84 12.85,-12.84 17,-21c0.67,-3 -0.5,-5 -3.5,-6c-15.33,10.93 -29.83,22.93 -43.5,36c-4.72,7.51 -6.56,15.68 -5.5,24.5c0.17,4.17 0.33,8.33 0.5,12.5c1.36,0.88 2.86,1.21 4.5,1c1.05,-0.15 2.05,0.02 3,0.5c-2,0.33 -4,0.67 -6,1c5.91,0.19 6.24,1.19 1,3c1.28,0.68 2.45,0.52 3.5,-0.5c0.11,2.35 1.28,3.85 3.5,4.5c-1.17,1.17 -2.33,2.33 -3.5,3.5c-0.42,-1.46 -1.26,-1.96 -2.5,-1.5c0.96,1.15 0.63,2.15 -1,3c1.51,0.85 3.01,1.68 4.5,2.5c0.77,-0.14 1.44,-0.48 2,-1c1.87,1.32 2.71,2.82 2.5,4.5c3.44,0.22 3.78,1.22 1,3c1.65,2.5 3.98,4 7,4.5c-0.54,-8.3 1.62,-7.96 6.5,1c1.15,-1.24 2.49,-2.24 4,-3c2.84,1.9 4.84,3.9 6,6c1.22,-0.36 2.39,-0.86 3.5,-1.5c-0.67,-0.33 -1.33,-0.67 -2,-1c1.33,-0.67 2.67,-0.67 4,0c-0.33,1 -0.67,2 -1,3c5.56,-1.27 10.9,-3.44 16,-6.5c0.61,0.12 0.94,0.46 1,1c-36.29,18.98 -73.96,22.14 -113,9.5c-52.77,-22.46 -82.27,-62.29 -88.5,-119.5c-1.95,-42.84 12.22,-79.34 42.5,-109.5c0.59,-0.46 1.26,-0.63 2,-0.5z" fill="#61a446"/>
    </g>
    <g>
      <path d="m205.5,150.5c-5.1,6.93 -11.1,13.1 -18,18.5c-11.68,7.51 -23.02,15.51 -34,24c-2.13,0.63 -4.13,0.3 -6,-1c-11.81,-9.08 -24.15,-17.41 -37,-25c-13.46,-11.08 -21.62,-25.25 -24.5,-42.5c-0.69,-15.01 -0.52,-30.01 0.5,-45c11.32,-0.95 22.32,-3.29 33,-7c10.56,-3.8 20.72,-8.46 30.5,-14c20.11,11.2 41.61,17.87 64.5,20c0.17,14.67 0,29.34 -0.5,44c-0.94,9.97 -3.77,19.31 -8.5,28z" fill="#fbf9f5"/>
    </g>
    <g>
      <path d="m178.5,86.5c1.43,0.38 2.26,1.38 2.5,3c3.5,13.82 3.17,27.49 -1,41c-2.05,4.71 -4.88,8.88 -8.5,12.5c-7.56,4.41 -15.39,8.24 -23.5,11.5c-0.83,5.98 -1.33,11.98 -1.5,18c-1.97,0.24 -3.8,-0.09 -5.5,-1c-1.84,-19.63 -2.51,-39.3 -2,-59c5.48,-11.34 14.31,-18.84 26.5,-22.5c4.42,-1.35 8.75,-2.52 13,-3.5z" fill="#60a345"/>
    </g>
    <g>
      <path d="m160.5,112.5c1.09,0.12 1.75,0.79 2,2c-3.56,10.11 -7.89,19.78 -13,29c-1.1,-2.69 -0.94,-5.36 0.5,-8c3.02,-7.91 6.52,-15.57 10.5,-23z" fill="#f4f7f0"/>
    </g>
    <g>
      <path d="m103.5,115.5c16.09,-1.42 25.25,5.91 27.5,22c0.5,2.98 0.66,5.98 0.5,9c-8.11,-1.31 -14.61,-5.31 -19.5,-12c-3.93,-5.85 -6.76,-12.19 -8.5,-19z" fill="#5ea242"/>
    </g>
    <g>
      <path d="m163.5,241.5c-1.64,0.21 -3.14,-0.12 -4.5,-1c-0.17,-4.17 -0.33,-8.33 -0.5,-12.5c-1.06,-8.82 0.78,-16.99 5.5,-24.5c13.67,-13.07 28.17,-25.07 43.5,-36c3,1 4.17,3 3.5,6c-4.15,8.16 -9.82,15.16 -17,21c-1.56,1.72 -2.39,3.72 -2.5,6c3.91,0.24 7.58,-0.6 11,-2.5c11.93,-8.35 18.26,-19.85 19,-34.5c1.1,-7.72 2.94,-15.39 5.5,-23c4.48,-4.23 8.48,-3.9 12,1c0.67,6 0.67,12 0,18c-5.93,45.1 -31.1,72.43 -75.5,82z" fill="#fbf9f5"/>
    </g>
    <g>
      <path d="m65.5,137.5c3.93,-0.45 7.09,0.88 9.5,4c1.22,12.94 3.89,25.61 8,38c4.25,9.92 11.42,16.75 21.5,20.5c1.9,0.77 3.57,0.44 5,-1c-6.17,-6.83 -12.33,-13.67 -18.5,-20.5c-2.76,-9.71 0.07,-11.55 8.5,-5.5c7.49,5.91 15.16,11.58 23,17c17.3,12.88 23.3,29.88 18,51c-25.66,-3.75 -46.49,-15.92 -62.5,-36.5c-14.69,-20.62 -18.86,-42.96 -12.5,-67z" fill="#fbf9f5"/>
    </g>
  </g>
</svg>